# xmcd
#
# Track frame offsets:
#	150
#	21580
#	47402
#
# Disc length: 917 seconds
#
# Revision: 1
# Processed by: cddbd v1.5.1PL0 Copyright (c) Steve Scherf et al.
# Submitted via: CDex 1.50Beta5
#
DISCID=1e039303
DTITLE=辛島美登里 - Silent Eve
DYEAR=1900
DGENRE=Pop
TTITLE0=Silent Eve
TTITLE1=Merry Christmas To You
TTITLE2=Silent Eve(Original Karaoke)
EXTD=
EXTT0=
EXTT1=
EXTT2=
PLAYORDER=
